<?xml version="1.0" encoding="UTF-8" standalone="no"?>
<!DOCTYPE svg PUBLIC "-//W3C//DTD SVG 1.1//EN" "http://www.w3.org/Graphics/SVG/1.1/DTD/svg11.dtd">
<svg width="100%" height="100%" viewBox="0 0 1014 1032" version="1.1" xmlns="http://www.w3.org/2000/svg" xmlns:xlink="http://www.w3.org/1999/xlink" xml:space="preserve" xmlns:serif="http://www.serif.com/" style="fill-rule:evenodd;clip-rule:evenodd;stroke-miterlimit:10;">
    <g transform="matrix(1,0,0,1,-13319,-3439)">
        <g id="Layer-6" serif:id="Layer 6">
        </g>
        <g id="Layer-7" serif:id="Layer 7">
        </g>
        <g id="Layer-5" serif:id="Layer 5">
        </g>
        <g id="Layer-3" serif:id="Layer 3">
        </g>
        <g id="Artboard1" transform="matrix(1,0,0,1,-2290.15,6660.89)">
            <rect x="15609.1" y="-3221.89" width="1013.3" height="1031.36" style="fill:none;"/>
            <clipPath id="_clip1">
                <rect x="15609.1" y="-3221.89" width="1013.3" height="1031.36"/>
            </clipPath>
            <g clip-path="url(#_clip1)">
                <g id="Layer-1" serif:id="Layer 1" transform="matrix(4.16667,0,0,4.16667,0.146111,0.111549)">
                    <g>
                        <g transform="matrix(1,0,0,1,3956.5,-773.253)">
                            <path d="M0,247.527L-177.42,247.527C-195.583,247.527 -210.307,232.803 -210.307,214.641L-210.307,32.886C-210.307,14.724 -195.583,0 -177.42,0L0,0C18.163,0 32.886,14.724 32.886,32.886L32.886,214.641C32.886,232.803 18.163,247.527 0,247.527Z" style="fill:rgb(97,125,138);fill-rule:nonzero;stroke:white;stroke-width:0.27px;"/>
                        </g>
                        <g transform="matrix(1,0,0,1,3974.95,-734.519)">
                            <path d="M0,67.328C-8.726,71.896 -16.757,76.356 -22.482,77.198C-57.187,82.305 -56.363,38.002 -68.062,21.048C-92.922,-14.977 -143.8,29.407 -93.15,52.564" style="fill:none;fill-rule:nonzero;stroke:white;stroke-width:10.37px;"/>
                        </g>
                        <g transform="matrix(1,0,0,1,3975.52,-708.484)">
                            <path d="M0,55.134C-13.227,60.865 -26.567,69.866 -34.957,71.101C-69.663,76.208 -68.838,31.905 -80.537,14.951C-105.397,-21.074 -156.275,23.309 -105.625,46.467" style="fill:none;fill-rule:nonzero;stroke:white;stroke-width:10.37px;"/>
                        </g>
                        <g transform="matrix(-0.921376,0.388673,0.388673,0.921376,3975.74,-653.029)">
                            <path d="M-1.881,-0.381C-1.232,-0.387 -0.579,-0.387 0.077,-0.381" style="fill:none;fill-rule:nonzero;stroke:white;stroke-width:10.37px;"/>
                        </g>
                        <g transform="matrix(1,0,0,1,3856.74,-677.48)">
                            <path d="M0,-79.31C-5.345,-37.994 -38.764,-4.456 -81.977,-0.579C-86.874,-0.139 -90.876,0 -94.117,-0.154L-94.117,-18.557L-93.292,-64.706L-84.122,-78.517" style="fill:rgb(233,98,36);fill-rule:nonzero;stroke:white;stroke-width:10px;"/>
                        </g>
                        <g transform="matrix(-0.551025,0.834489,0.834489,0.551025,3919.14,-757.629)">
                            <path d="M-0.829,-0.446L0.24,-0.446" style="fill:none;fill-rule:nonzero;stroke:white;stroke-width:6.38px;"/>
                        </g>
                        <g transform="matrix(0.561472,-0.827496,-0.827496,-0.561472,3942.87,-757.547)">
                            <path d="M-0.551,1.041L1.963,1.041" style="fill:none;fill-rule:nonzero;stroke:white;stroke-width:6.38px;"/>
                        </g>
                        <g transform="matrix(1,0,0,1,3918.64,-612.523)">
                            <path d="M0,-145.152L-89.846,-9L-75.444,0L23.061,-145.152" style="fill:rgb(97,125,138);fill-rule:nonzero;stroke:white;stroke-width:6.38px;"/>
                        </g>
                        <g transform="matrix(1,0,0,1,3967.57,-594.187)">
                            <path d="M0,-160.767L-120.719,-10.296L-107.214,0L9.755,-141.991" style="fill:rgb(97,125,138);fill-rule:nonzero;stroke:white;stroke-width:6.38px;"/>
                        </g>
                        <g transform="matrix(0.711672,0.702512,0.702512,-0.711672,3817.22,-672.697)">
                            <path d="M-21.956,-53.497C20.315,-11.769 88.207,-11.88 130.344,-53.497" style="fill:rgb(97,125,138);fill-rule:nonzero;stroke:white;stroke-width:11.16px;"/>
                        </g>
                        <g transform="matrix(0.707107,0.707107,0.707107,-0.707107,3806.78,-645.321)">
                            <path d="M-17.787,-42.941C15.752,-9.402 70.13,-9.402 103.669,-42.941" style="fill:rgb(97,125,138);fill-rule:nonzero;stroke:white;stroke-width:11.16px;"/>
                        </g>
                        <g transform="matrix(0.707107,0.707107,0.707107,-0.707107,3795.48,-618.049)">
                            <path d="M-13.108,-31.645C11.608,-6.929 51.68,-6.928 76.397,-31.645" style="fill:rgb(97,125,138);fill-rule:nonzero;stroke:white;stroke-width:11.16px;"/>
                        </g>
                        <g transform="matrix(0.733456,0.679736,0.679736,-0.733456,3782.25,-586.657)">
                            <path d="M-6.934,-17.683C8.051,-4.558 30.348,-4.746 45.095,-17.683" style="fill:rgb(97,125,138);fill-rule:nonzero;stroke:white;stroke-width:11.16px;"/>
                        </g>
                        <g transform="matrix(1,0,0,1,3864.41,-647.309)">
                            <path d="M0,104.255C2.177,46.308 49.84,0 108.319,0C109.063,0 109.805,0.007 110.545,0.022" style="fill:rgb(97,125,138);fill-rule:nonzero;stroke:white;stroke-width:11.16px;"/>
                        </g>
                        <g transform="matrix(1,0,0,1,3886.71,-624.794)">
                            <path d="M0,83.141C1.447,36.978 39.325,0 85.839,0C86.643,0 87.444,0.011 88.242,0.033" style="fill:rgb(97,125,138);fill-rule:nonzero;stroke:white;stroke-width:11.16px;"/>
                        </g>
                        <g transform="matrix(1,0,0,1,3909.32,-602.201)">
                            <path d="M0,60.548C1.435,26.866 29.196,0 63.231,0C64.035,0 64.835,0.015 65.632,0.044" style="fill:rgb(97,125,138);fill-rule:nonzero;stroke:white;stroke-width:11.16px;"/>
                        </g>
                        <g transform="matrix(0.784407,-0.620247,-0.620247,-0.784407,3947.85,-536.625)">
                            <path d="M-5.284,15.202C8.751,26.326 29.078,26.792 43.735,15.202" style="fill:rgb(97,125,138);fill-rule:nonzero;stroke:white;stroke-width:11.16px;"/>
                        </g>
                        <g transform="matrix(0.999612,0.0278544,0.0278544,-0.999612,3972.73,-575.707)">
                            <path d="M-0,-0.031C0.746,-0.01 1.488,-0.011 2.225,-0.031" style="fill:rgb(97,125,138);fill-rule:nonzero;stroke:rgb(241,242,242);stroke-width:11.16px;"/>
                        </g>
                        <g transform="matrix(1,0,0,1,3762.36,-621.637)">
                            <path d="M0,64.347C19.435,26.159 59.11,0 104.896,0C150.19,0 189.506,25.602 209.159,63.125" style="fill:none;fill-rule:nonzero;stroke:rgb(97,125,138);stroke-width:8.24px;"/>
                        </g>
                        <g transform="matrix(1,0,0,1,3768.22,-612.132)">
                            <path d="M0,63.99C16.901,26.118 54.886,-0.277 99.037,-0.277C143.295,-0.277 181.359,26.247 198.197,64.267" style="fill:rgb(97,125,138);fill-rule:nonzero;stroke:white;stroke-width:11.16px;"/>
                        </g>
                        <g transform="matrix(1,0,0,1,3793.22,-588.706)">
                            <path d="M0,40.842C14.975,15.675 42.447,-1.188 73.858,-1.188C105.76,-1.188 133.6,16.207 148.41,42.03" style="fill:rgb(97,125,138);fill-rule:nonzero;stroke:white;stroke-width:11.16px;"/>
                        </g>
                        <g transform="matrix(1,0,0,1,3820.37,-563.639)">
                            <path d="M0,16.92C11.572,4.271 28.213,-3.662 46.708,-3.662C66.929,-3.662 84.935,5.821 96.521,20.582" style="fill:rgb(97,125,138);fill-rule:nonzero;stroke:white;stroke-width:11.16px;"/>
                        </g>
                        <g transform="matrix(1,0,0,1,3928.48,-544.641)">
                            <path d="M0,-213.034L30.027,-213.034C39.108,-213.034 46.469,-205.672 46.469,-196.592L46.469,-16.442C46.469,-7.361 39.108,0 30.027,0L-150.123,0C-159.203,0 -166.565,-7.361 -166.565,-16.442L-166.565,-196.592C-166.565,-205.672 -159.203,-213.034 -150.123,-213.034L0,-213.034" style="fill:none;fill-rule:nonzero;stroke:white;stroke-width:9.3px;"/>
                        </g>
                        <g transform="matrix(1,0,0,1,3890.96,-665.092)">
                            <path d="M0,-6.337C-3.347,-3.08 -16.285,8.178 -32.281,-3.658C-35.416,-5.978 -38.38,-9.761 -41.238,-14.515" style="fill:none;fill-rule:nonzero;stroke:white;stroke-width:11.16px;"/>
                        </g>
                    </g>
                </g>
            </g>
        </g>
    </g>
</svg>
