<?xml version="1.0" encoding="UTF-8" standalone="no"?>
<!DOCTYPE svg PUBLIC "-//W3C//DTD SVG 1.1//EN" "http://www.w3.org/Graphics/SVG/1.1/DTD/svg11.dtd">
<svg width="100%" height="100%" viewBox="0 0 1865 1398" version="1.1" xmlns="http://www.w3.org/2000/svg" xmlns:xlink="http://www.w3.org/1999/xlink" xml:space="preserve" xmlns:serif="http://www.serif.com/" style="fill-rule:evenodd;clip-rule:evenodd;stroke-miterlimit:10;">
    <g transform="matrix(1,0,0,1,-321,-3128)">
        <g id="Layer-6" serif:id="Layer 6">
        </g>
        <g id="Layer-2" serif:id="Layer 2" transform="matrix(4.16667,0,0,4.16667,0,0)">
            <g>
                <g transform="matrix(-0.0279039,0.999611,0.999611,0.0279039,233.987,678.12)">
                    <path d="M264.06,-110.289C265.998,-99.14 268.869,-88.178 272.604,-77.471C149.968,-11.114 145.332,155.501 264.06,228.589C259.734,239.072 256.256,249.857 253.699,260.88C176.858,219.054 139.926,144.999 141.965,72.032C144.003,-0.937 185.015,-72.818 264.06,-110.289Z" style="fill:rgb(97,124,137);fill-rule:nonzero;stroke:white;stroke-width:17px;"/>
                </g>
                <g transform="matrix(0.250558,0.968102,0.968102,-0.250558,256.293,970.044)">
                    <path d="M66.866,-13.81C39.48,12.916 51.182,58.11 88.09,68.194C80.299,77.042 73.216,86.269 66.866,95.805C15.306,76.584 -0.846,14.159 34.912,-27.659C45.091,-22.401 55.761,-17.768 66.866,-13.81Z" style="fill:rgb(97,124,137);fill-rule:nonzero;stroke:white;stroke-width:17px;"/>
                </g>
                <g transform="matrix(0.125636,0.992076,0.992076,-0.125636,246.708,886.476)">
                    <path d="M110.546,-32.582C63.759,10.245 73.099,83.953 129.079,113.763C122.188,122.707 116.001,132.012 110.546,141.612C34.041,102.31 21.37,2.197 85.656,-54.931C93.332,-46.996 101.643,-39.527 110.546,-32.582Z" style="fill:rgb(97,124,137);fill-rule:nonzero;stroke:white;stroke-width:17px;"/>
                </g>
                <g transform="matrix(0.0643926,0.997925,0.997925,-0.0643926,233.2,801.859)">
                    <path d="M165.272,-52.62C88.155,6.161 95.506,119.939 179.528,168.318C173.992,178.066 169.228,188.134 165.272,198.449C53.817,140.506 44.189,-8.888 147.261,-80.67C152.51,-70.947 158.528,-61.576 165.272,-52.62Z" style="fill:rgb(97,124,137);fill-rule:nonzero;stroke:white;stroke-width:17px;"/>
                </g>
            </g>
        </g>
        <g id="Layer-7" serif:id="Layer 7">
        </g>
        <g id="Layer-5" serif:id="Layer 5">
        </g>
        <g id="Layer-3" serif:id="Layer 3">
        </g>
        <g id="Layer-1" serif:id="Layer 1">
        </g>
    </g>
</svg>
