<?xml version="1.0" encoding="UTF-8" standalone="no"?>
<!DOCTYPE svg PUBLIC "-//W3C//DTD SVG 1.1//EN" "http://www.w3.org/Graphics/SVG/1.1/DTD/svg11.dtd">
<svg width="636px" height="675px" version="1.1" xmlns="http://www.w3.org/2000/svg" xmlns:xlink="http://www.w3.org/1999/xlink" xml:space="preserve" xmlns:serif="http://www.serif.com/" style="fill-rule:evenodd;clip-rule:evenodd;stroke-linejoin:round;stroke-miterlimit:2;">
    <g transform="matrix(1,0,0,1,-155,-141.809)">
        <path d="M327.783,529.429C326.277,547.505 310.404,560.937 292.329,559.431C274.253,557.925 260.821,542.052 262.327,523.976C263.833,505.901 279.706,492.469 297.782,493.975C315.857,495.481 329.289,511.354 327.783,529.429Z" style="fill:rgb(91,91,91);fill-rule:nonzero;"/>
        <path d="M478.393,620.336C476.987,637.206 462.172,649.743 445.302,648.337C428.432,646.932 415.896,632.117 417.301,615.247C418.706,598.377 433.522,585.84 450.392,587.245C467.262,588.651 479.798,603.466 478.393,620.336Z" style="fill:rgb(91,91,91);fill-rule:nonzero;"/>
        <path d="M416.03,683.248C415.127,694.093 405.603,702.152 394.757,701.249C383.912,700.345 375.853,690.821 376.757,679.976C377.66,669.131 387.184,661.072 398.029,661.975C408.874,662.879 416.934,672.403 416.03,683.248Z" style="fill:rgb(91,91,91);fill-rule:nonzero;"/>
        <path d="M273.372,709.547C278.185,719.307 274.175,731.122 264.415,735.935C254.655,740.749 242.841,736.738 238.027,726.978C233.214,717.218 237.224,705.404 246.984,700.59C256.744,695.777 268.558,699.787 273.372,709.547Z" style="fill:rgb(91,91,91);fill-rule:nonzero;"/>
        <path d="M280.996,598.765C280.092,609.61 270.568,617.669 259.723,616.766C248.878,615.862 240.819,606.338 241.723,595.493C242.626,584.648 252.15,576.589 262.995,577.492C273.84,578.396 281.899,587.92 280.996,598.765Z" style="fill:rgb(91,91,91);fill-rule:nonzero;"/>
        <path d="M324.576,743.736C323.706,754.179 314.534,761.94 304.091,761.07C293.647,760.2 285.887,751.028 286.757,740.585C287.627,730.142 296.798,722.381 307.241,723.251C317.685,724.121 325.446,733.292 324.576,743.736Z" style="fill:rgb(91,91,91);fill-rule:nonzero;"/>
        <path d="M241.728,806.405C241.226,812.43 235.935,816.908 229.91,816.406C223.885,815.904 219.408,810.613 219.91,804.588C220.411,798.563 225.703,794.085 231.728,794.587C237.753,795.089 242.23,800.38 241.728,806.405Z" style="fill:rgb(91,91,91);fill-rule:nonzero;"/>
        <path d="M321.363,694.402C320.861,700.427 315.57,704.904 309.545,704.402C303.52,703.9 299.042,698.609 299.544,692.584C300.046,686.559 305.337,682.082 311.362,682.584C317.387,683.086 321.865,688.377 321.363,694.402Z" style="fill:rgb(91,91,91);fill-rule:nonzero;"/>
        <path d="M265.243,770.283C264.741,776.308 259.45,780.785 253.425,780.284C247.4,779.782 242.922,774.49 243.424,768.465C243.926,762.44 249.217,757.963 255.242,758.465C261.267,758.967 265.745,764.258 265.243,770.283Z" style="fill:rgb(91,91,91);fill-rule:nonzero;"/>
        <path d="M368.455,709.31C367.651,718.95 359.186,726.114 349.546,725.311C339.906,724.507 332.742,716.042 333.545,706.402C334.348,696.762 342.814,689.598 352.454,690.401C362.094,691.204 369.258,699.67 368.455,709.31Z" style="fill:rgb(91,91,91);fill-rule:nonzero;"/>
        <path d="M230.454,748.344C229.952,754.369 224.661,758.847 218.636,758.345C212.611,757.843 208.133,752.552 208.635,746.527C209.137,740.502 214.428,736.024 220.453,736.526C226.478,737.028 230.956,742.319 230.454,748.344Z" style="fill:rgb(91,91,91);fill-rule:nonzero;"/>
        <path d="M241.118,637.918C240.616,643.943 235.325,648.42 229.3,647.919C223.275,647.417 218.797,642.125 219.299,636.1C219.801,630.075 225.092,625.598 231.117,626.1C237.142,626.602 241.62,631.893 241.118,637.918Z" style="fill:rgb(91,91,91);fill-rule:nonzero;"/>
        <path d="M235.543,687.252C235.041,693.277 229.749,697.755 223.724,697.253C217.699,696.751 213.222,691.46 213.724,685.435C214.226,679.41 219.517,674.932 225.542,675.434C231.567,675.936 236.044,681.227 235.543,687.252Z" style="fill:rgb(91,91,91);fill-rule:nonzero;"/>
        <path d="M436.224,536.937C434.828,559.032 415.784,575.812 393.689,574.415C371.594,573.019 354.815,553.975 356.212,531.88C357.608,509.786 376.652,493.006 398.746,494.403C420.841,495.799 437.621,514.843 436.224,536.937Z" style="fill:rgb(91,91,91);fill-rule:nonzero;"/>
        <path d="M384.937,616.944C382.996,640.241 362.537,657.554 339.24,655.613C315.943,653.672 298.631,633.213 300.572,609.916C302.513,586.619 322.972,569.307 346.268,571.248C369.565,573.189 386.878,593.648 384.937,616.944Z" style="fill:rgb(91,91,91);fill-rule:nonzero;"/>
        <path d="M292.436,656.993C294.603,668.988 286.635,680.467 274.641,682.634C262.646,684.8 251.167,676.833 249.001,664.838C246.834,652.844 254.802,641.364 266.796,639.198C278.79,637.032 290.27,644.999 292.436,656.993Z" style="fill:rgb(91,91,91);fill-rule:nonzero;"/>
        <path d="M516.467,178.206C230.559,342.76 247.963,546.947 325.297,462.58C374.58,439.05 465.664,527.002 471.238,460.092C476.812,393.181 525.24,506.333 495.365,610.033C445.243,784.014 776.886,327.276 790.792,141.809C614.023,214.206 643.112,119.961 516.467,178.206Z" style="fill:url(#_Linear1);fill-rule:nonzero;"/>
        <path d="M698.548,425.654L672.392,377.079L668.468,377.079L668.468,425.654L631.85,425.654L631.85,293.939L689.58,293.939C700.167,293.939 709.135,295.808 716.484,299.544C723.832,303.156 729.375,308.201 733.111,314.677C736.848,321.03 738.716,328.191 738.716,336.163C738.716,345.131 736.225,353.04 731.243,359.89C726.386,366.616 719.224,371.411 709.758,374.276L739.464,425.654L698.548,425.654ZM668.468,352.043L686.591,352.043C691.573,352.043 695.309,350.86 697.801,348.494C700.292,346.127 701.537,342.702 701.537,338.218C701.537,333.983 700.229,330.682 697.614,328.316C695.123,325.825 691.448,324.579 686.591,324.579L668.468,324.579L668.468,352.043Z" style="fill:white;fill-rule:nonzero;"/>
        <path d="M534.714,293.939L534.714,370.353C534.714,377.452 536.333,382.932 539.572,386.794C542.935,390.655 547.979,392.585 554.705,392.585C561.431,392.585 566.475,390.655 569.838,386.794C573.326,382.808 575.069,377.328 575.069,370.353L575.069,293.939L611.688,293.939L611.688,370.353C611.688,382.434 609.135,392.772 604.028,401.366C598.921,409.836 591.946,416.25 583.103,420.61C574.384,424.845 564.669,426.962 553.958,426.962C543.246,426.962 533.655,424.845 525.186,420.61C516.841,416.25 510.239,409.836 505.382,401.366C500.649,392.897 498.282,382.559 498.282,370.353L498.282,293.939L534.714,293.939Z" style="fill:white;fill-rule:nonzero;"/>
        <path d="M414.936,426.962C402.605,426.962 391.271,424.097 380.933,418.368C370.595,412.514 362.375,404.48 356.272,394.267C350.293,383.929 347.304,372.283 347.304,359.33C347.304,346.376 350.293,334.793 356.272,324.579C362.375,314.241 370.595,306.208 380.933,300.478C391.271,294.749 402.605,291.884 414.936,291.884C427.391,291.884 438.726,294.749 448.939,300.478C459.277,306.208 467.435,314.241 473.414,324.579C479.392,334.793 482.382,346.376 482.382,359.33C482.382,372.283 479.392,383.929 473.414,394.267C467.435,404.48 459.277,412.514 448.939,418.368C438.601,424.097 427.267,426.962 414.936,426.962ZM414.936,392.959C424.278,392.959 431.626,389.907 436.982,383.804C442.462,377.701 445.203,369.543 445.203,359.33C445.203,348.867 442.462,340.647 436.982,334.668C431.626,328.565 424.278,325.513 414.936,325.513C405.47,325.513 398.059,328.565 392.703,334.668C387.348,340.647 384.67,348.867 384.67,359.33C384.67,369.668 387.348,377.888 392.703,383.991C398.059,389.97 405.47,392.959 414.936,392.959Z" style="fill:white;fill-rule:nonzero;"/>
        <path d="M296.632,397.63L337.548,397.63L337.548,425.654L260.014,425.654L260.014,293.939L296.632,293.939L296.632,397.63Z" style="fill:white;fill-rule:nonzero;"/>
        <path d="M244.592,293.939L244.592,323.085L191.906,323.085L191.906,346.252L230.766,346.252L230.766,374.089L191.906,374.089L191.906,425.654L155.287,425.654L155.287,293.939L244.592,293.939Z" style="fill:white;fill-rule:nonzero;"/>
        <path d="M498.727,527.212C506.465,528.959 512.58,532.828 517.073,538.818C521.691,544.684 524,551.424 524,559.037C524,570.269 520.131,579.068 512.393,585.433C504.655,591.798 493.797,594.98 479.819,594.98L414.484,594.98L414.484,463L477.76,463C491.239,463 501.785,465.995 509.398,471.986C517.136,477.976 521.004,486.401 521.004,497.259C521.004,504.996 518.945,511.486 514.827,516.728C510.833,521.845 505.466,525.34 498.727,527.212ZM451.177,515.418L469.71,515.418C478.946,515.418 483.563,511.611 483.563,503.998C483.563,496.135 478.946,492.204 469.71,492.204L451.177,492.204L451.177,515.418ZM472.518,565.402C481.754,565.402 486.371,561.533 486.371,553.795C486.371,549.801 485.123,546.743 482.627,544.622C480.256,542.5 476.824,541.439 472.331,541.439L451.177,541.439L451.177,565.402L472.518,565.402Z" style="fill:white;fill-rule:nonzero;"/>
        <path d="M343.556,573.451L296.754,573.451L289.641,594.98L251.076,594.98L299.188,463L341.497,463L389.421,594.98L350.67,594.98L343.556,573.451ZM334.383,545.371L320.155,502.688L306.115,545.371L334.383,545.371Z" style="fill:white;fill-rule:nonzero;"/>
        <path d="M191.692,566.899L232.69,566.899L232.69,594.98L155,594.98L155,463L191.692,463L191.692,566.899Z" style="fill:white;fill-rule:nonzero;"/>
    </g>
    <defs>
        <linearGradient id="_Linear1" x1="0" y1="0" x2="1" y2="0" gradientUnits="userSpaceOnUse" gradientTransform="matrix(-69.732,631.078,-631.078,-69.732,507.608,110.518)"><stop offset="0" style="stop-color:white;stop-opacity:1"/><stop offset="1" style="stop-color:white;stop-opacity:0"/></linearGradient>
    </defs>
</svg>
